<?xml version="1.0" encoding="UTF-8"?>
<svg version="1.1" xmlns="http://www.w3.org/2000/svg" width="342" height="123">
<path d="M0 0 C3.33507845 2.64027044 5.68946344 4.87608328 6.31640625 9.1640625 C6.39761719 9.97617188 6.47882813 10.78828125 6.5625 11.625 C6.64628906 12.44226562 6.73007813 13.25953125 6.81640625 14.1015625 C6.87699219 14.72804688 6.93757813 15.35453125 7 16 C8.2684375 14.7625 8.2684375 14.7625 9.5625 13.5 C12.17506025 11.33213086 13.07717717 10.98802423 16.625 10.4375 C20 11 20 11 22.4375 12.625 C24.51114192 15.77693571 24.66859841 17.28556438 24 21 C20.50822133 26.56502225 17.20534964 28.10684248 11 30 C11.9590625 31.3921875 11.9590625 31.3921875 12.9375 32.8125 C17.08301832 39.21921013 16.82868042 46.6031911 16 54 C9.5312747 79.30057512 -15.92141007 95.93278122 -36 110 C-36.61230469 109.51015625 -37.22460938 109.0203125 -37.85546875 108.515625 C-39.8814404 106.82330264 -39.8814404 106.82330264 -42.3125 106.75 C-53.47674033 103.63439805 -64.03450238 84.24417211 -69.5625 74.6875 C-75.82080237 63.05737784 -79.89969612 50.54434954 -76.26953125 37.34375 C-73.27106467 30.78383944 -68.18035451 27.76938307 -61.6875 25.25 C-55.14441923 22.85727069 -50.62304587 21.76816441 -43.875 24.0625 C-39.72077607 26.86208569 -36.25611841 30.48776317 -34 35 C-33.154375 34.113125 -32.30875 33.22625 -31.4375 32.3125 C-25.00344256 26.73719766 -15.24406414 24.46877005 -7 23 C-7.74056641 22.27296875 -7.74056641 22.27296875 -8.49609375 21.53125 C-14.38758652 15.3671127 -14.38758652 15.3671127 -15.125 10.8125 C-14.99242414 6.76893641 -14.54453298 5.08979004 -12 2 C-7.99745384 -0.66836411 -4.70686701 -0.8340238 0 0 Z M-6 8 C-6.33 8.33 -6.66 8.66 -7 9 C-6.86348058 15.55293232 -4.03896366 19.9398211 0 25 C0.33 25 0.66 25 1 25 C1.46160638 16.09018098 1.46160638 16.09018098 -2 8 C-3.32 8 -4.64 8 -6 8 Z M11.859375 18.43359375 C11.16328125 19.09488281 10.4671875 19.75617187 9.75 20.4375 C9.04359375 21.09621094 8.3371875 21.75492188 7.609375 22.43359375 C7.07828125 22.95050781 6.5471875 23.46742187 6 24 C6.33 24.66 6.66 25.32 7 26 C13.481679 23.22832924 13.481679 23.22832924 18 18 C15.21529346 16.85224933 14.42646223 16.71439482 11.859375 18.43359375 Z M4 35 C4.31710938 35.83789062 4.63421875 36.67578125 4.9609375 37.5390625 C6.07028251 41.2340989 6.40729602 44.52889627 6.625 48.375 C6.69976562 49.62023438 6.77453125 50.86546875 6.8515625 52.1484375 C6.90054688 53.08945312 6.94953125 54.03046875 7 55 C9.97117835 50.54323248 9.63299729 46.22781291 9 41 C7.93635225 38.4684221 6.85521202 37.0800862 5 35 C4.67 35 4.34 35 4 35 Z M6 55 C7 58 7 58 7 58 Z M5 58 C6 60 6 60 6 60 Z M4 60 C5 62 5 62 5 62 Z M3 62 C4 64 4 64 4 64 Z M2 64 C3 66 3 66 3 66 Z M-2 70 C-1 72 -1 72 -1 72 Z M-5 74 C-5 77 -5 77 -5 77 Z M-11 81 C-12.299375 82.3921875 -12.299375 82.3921875 -13.625 83.8125 C-17.21272687 87.40756373 -21.07296406 90.55706303 -25.0625 93.6875 C-25.6517627 94.15067627 -26.24102539 94.61385254 -26.84814453 95.09106445 C-30.46565925 97.89935839 -34.16012375 100.50437266 -38 103 C-37.67 103.99 -37.34 104.98 -37 106 C-31.04955077 102.95088092 -26.60274945 99.13282341 -21.8125 94.5 C-21.11447266 93.83613281 -20.41644531 93.17226562 -19.69726562 92.48828125 C-16.42310581 89.36677018 -13.17834195 86.2194058 -10 83 C-10.33 82.34 -10.66 81.68 -11 81 Z " fill="#FDD81D" transform="translate(215,0)"/>
<path d="M0 0 C3.33507845 2.64027044 5.68946344 4.87608328 6.31640625 9.1640625 C6.39761719 9.97617188 6.47882813 10.78828125 6.5625 11.625 C6.64628906 12.44226562 6.73007813 13.25953125 6.81640625 14.1015625 C6.87699219 14.72804688 6.93757813 15.35453125 7 16 C8.2684375 14.7625 8.2684375 14.7625 9.5625 13.5 C12.17506025 11.33213086 13.07717717 10.98802423 16.625 10.4375 C20 11 20 11 22.4375 12.625 C24.51114192 15.77693571 24.66859841 17.28556438 24 21 C20.50822133 26.56502225 17.20534964 28.10684248 11 30 C11.9590625 31.3921875 11.9590625 31.3921875 12.9375 32.8125 C17.08301832 39.21921013 16.82868042 46.6031911 16 54 C9.5312747 79.30057512 -15.92141007 95.93278122 -36 110 C-36.61230469 109.51015625 -37.22460938 109.0203125 -37.85546875 108.515625 C-39.8814404 106.82330264 -39.8814404 106.82330264 -42.3125 106.75 C-53.47674033 103.63439805 -64.03450238 84.24417211 -69.5625 74.6875 C-75.82080237 63.05737784 -79.89969612 50.54434954 -76.26953125 37.34375 C-73.27106467 30.78383944 -68.18035451 27.76938307 -61.6875 25.25 C-55.14441923 22.85727069 -50.62304587 21.76816441 -43.875 24.0625 C-39.74658912 26.84468994 -35.80172546 30.33227027 -34.33203125 35.22265625 C-34.22246094 35.80917969 -34.11289063 36.39570312 -34 37 C-34.99 37.495 -34.99 37.495 -36 38 C-36.53625 37.0925 -37.0725 36.185 -37.625 35.25 C-39.93496503 31.84159006 -42.26861172 29.86569414 -46 28 C-51.80453751 27.15740585 -55.43564024 28.00557182 -60.234375 31.40625 C-64.21509698 34.99946807 -65.69506424 38.63039501 -66.375 43.9140625 C-67.18166416 64.63524801 -55.38750256 85.39458273 -41.80859375 100.42578125 C-40.25061141 101.99635334 -38.63370712 103.50835436 -37 105 C-31.21308728 102.00884251 -26.80923789 98.37644937 -22.125 93.875 C-21.42318604 93.20702393 -20.72137207 92.53904785 -19.99829102 91.85083008 C-7.74484895 80.09041585 7.83531389 64.84568719 8.3125 46.6875 C8.24566705 41.62156236 7.59840044 38.7829338 4 35 C-0.52628022 31.62747748 -4.05024171 30.28089731 -9.71875 30.54296875 C-13.71329969 31.34324668 -17.00165608 33.26769619 -20 36 C-22.5613597 40.06999227 -22.2988134 43.29368893 -22 48 C-21.34 48.99 -20.68 49.98 -20 51 C-15.697683 51.56823055 -13.6868294 51.46762853 -10.0625 49 C-9.381875 48.34 -8.70125 47.68 -8 47 C-9.44865567 50.38019657 -11.08219573 52.73059668 -14 55 C-17.80687944 55.64797948 -19.44864418 55.33833198 -22.75 53.3125 C-26.09592787 49.87362969 -26.84936537 47.35571171 -27.375 42.625 C-26.62122205 35.33847982 -22.59357006 30.99056814 -17.171875 26.4453125 C-13.86720489 24.24616153 -10.89761201 23.62640193 -7 23 C-7.74056641 22.27296875 -7.74056641 22.27296875 -8.49609375 21.53125 C-14.38758652 15.3671127 -14.38758652 15.3671127 -15.125 10.8125 C-14.99242414 6.76893641 -14.54453298 5.08979004 -12 2 C-7.99745384 -0.66836411 -4.70686701 -0.8340238 0 0 Z M-6 8 C-6.33 8.33 -6.66 8.66 -7 9 C-6.86348058 15.55293232 -4.03896366 19.9398211 0 25 C0.33 25 0.66 25 1 25 C1.46160638 16.09018098 1.46160638 16.09018098 -2 8 C-3.32 8 -4.64 8 -6 8 Z M11.859375 18.43359375 C11.16328125 19.09488281 10.4671875 19.75617187 9.75 20.4375 C9.04359375 21.09621094 8.3371875 21.75492188 7.609375 22.43359375 C7.07828125 22.95050781 6.5471875 23.46742187 6 24 C6.33 24.66 6.66 25.32 7 26 C13.481679 23.22832924 13.481679 23.22832924 18 18 C15.21529346 16.85224933 14.42646223 16.71439482 11.859375 18.43359375 Z " fill="#1F2C56" transform="translate(215,0)"/>
<path d="M0 0 C4.27454823 1.87480185 5.58503239 3.26689056 7.875 7.3125 C9.04630156 11.15176623 9.3833223 14.0134481 9 18 C8.01 19.485 8.01 19.485 7 21 C6.75765625 20.24074219 6.5153125 19.48148438 6.265625 18.69921875 C5.93046875 17.70535156 5.5953125 16.71148437 5.25 15.6875 C4.76273438 14.20830078 4.76273438 14.20830078 4.265625 12.69921875 C2.5218766 8.98029854 0.46758156 7.55530113 -3.3125 6.125 C-7.12469825 5.94768845 -9.88479913 6.90935408 -13 9 C-22.72826004 18.24426701 -26.46913036 34.70192527 -31 47 C-25.72 47.33 -20.44 47.66 -15 48 C-14.34 46.68 -13.68 45.36 -13 44 C-11.83102663 42.5506846 -10.62060692 41.13400769 -9.375 39.75 C-8.74335937 39.04359375 -8.11171875 38.3371875 -7.4609375 37.609375 C-6.97882813 37.07828125 -6.49671875 36.5471875 -6 36 C-5.67 36.66 -5.34 37.32 -5 38 C-5.62084961 39.78759766 -5.62084961 39.78759766 -6.65234375 41.9140625 C-7.01650391 42.67460938 -7.38066406 43.43515625 -7.75585938 44.21875 C-8.14580078 45.0128125 -8.53574219 45.806875 -8.9375 46.625 C-9.32357422 47.42679688 -9.70964844 48.22859375 -10.10742188 49.0546875 C-11.06456479 51.0398728 -12.03138777 53.0203855 -13 55 C-7.39 55.66 -1.78 56.32 4 57 C3 59 3 59 1.28515625 59.59765625 C0.55167969 59.75105469 -0.18179688 59.90445313 -0.9375 60.0625 C-1.74703125 60.24296875 -2.5565625 60.4234375 -3.390625 60.609375 C-6 61 -6 61 -8.609375 60.890625 C-11.48902355 60.80336292 -13.34058132 60.85509772 -16 62 C-20.04451555 67.74746947 -22.06553556 74.08076328 -23 81 C-20.24927823 79.47182124 -18.04684208 78.04684208 -15.8125 75.8125 C-15.214375 75.214375 -14.61625 74.61625 -14 74 C-13.34 74 -12.68 74 -12 74 C-14.83804143 84.06214689 -14.83804143 84.06214689 -19 87 C-21.4375 87.9375 -21.4375 87.9375 -24 88 C-28.59701493 85.80597015 -28.59701493 85.80597015 -30 83 C-30.61887711 76.06857637 -28.80415891 71.273538 -26 65 C-25.32693574 63.33590664 -24.65847626 61.66991953 -24 60 C-25.98 59.34 -27.96 58.68 -30 58 C-29.505 57.01 -29.505 57.01 -29 56 C-26.72600246 55.39923744 -24.44869424 55.0436846 -22.12890625 54.66015625 C-19.63209975 54.13111321 -19.63209975 54.13111321 -18 51 C-23.43090437 50.65242212 -28.49373736 50.73293093 -33 54 C-36.70597861 59.46538259 -38.63495952 65.7725171 -40.75390625 71.9765625 C-42.70972936 77.65656701 -45.40712283 82.21515816 -49 87 C-49.61294922 87.85839478 -49.61294922 87.85839478 -50.23828125 88.73413086 C-53.13041714 92.54065743 -56.43950057 95.48563568 -61 97 C-64.36456963 97.30497561 -67.63334373 97.24386243 -71 97 C-71 96.01 -71 95.02 -71 94 C-70.40832031 93.91363281 -69.81664062 93.82726562 -69.20703125 93.73828125 C-63.60333723 92.74186584 -60.63787897 91.6210895 -57 87 C-56.55398437 86.46375 -56.10796875 85.9275 -55.6484375 85.375 C-48.34056478 75.68327575 -44.09500027 62.65362346 -41 51 C-42.03125 51.020625 -43.0625 51.04125 -44.125 51.0625 C-48 51 -48 51 -51.1875 50.3125 C-54.05637892 49.7046905 -54.05637892 49.7046905 -56.375 51.4375 C-56.91125 51.953125 -57.4475 52.46875 -58 53 C-58.66 52.67 -59.32 52.34 -60 52 C-60.25 49.6875 -60.25 49.6875 -60 47 C-58.25 45.125 -58.25 45.125 -56 44 C-53.75 44.3125 -53.75 44.3125 -52 45 C-52 45.99 -52 46.98 -52 48 C-47.38 47.67 -42.76 47.34 -38 47 C-37.67 45.02 -37.34 43.04 -37 41 C-36.43520632 39.31051744 -35.81569599 37.63839674 -35.14453125 35.98828125 C-34.77255615 35.07054932 -34.40058105 34.15281738 -34.01733398 33.20727539 C-33.61973877 32.25199951 -33.22214355 31.29672363 -32.8125 30.3125 C-32.40394775 29.32950928 -31.99539551 28.34651855 -31.57446289 27.33374023 C-24.91117664 11.49973358 -19.18296321 -1.75530382 0 0 Z " fill="#1F2B57" transform="translate(128,21)"/>
<path d="M0 0 C2.1875 2.375 2.1875 2.375 3.375 5.25 C3.10659537 9.7234105 1.2775691 11.20956336 -1.8125 14.375 C-2.8025 14.045 -3.7925 13.715 -4.8125 13.375 C-4.338125 12.818125 -3.86375 12.26125 -3.375 11.6875 C-1.67872176 9.1770082 -1.31648979 7.32554218 -0.8125 4.375 C-13.59284775 3.24732226 -22.20067712 5.69960838 -32.69921875 13.52734375 C-41.83479269 21.29736105 -47.71610232 30.15201737 -49.3125 42.125 C-49.03091206 45.49163016 -49.03091206 45.49163016 -46.875 48.25 C-42.25641523 51.45473229 -38.13307457 51.94221558 -32.6171875 51 C-23.26121141 48.31728284 -13.76001884 42.11565139 -7.8125 34.375 C-6.23541171 31.24329233 -6.23541171 31.24329233 -5.8125 28.375 C-6.3075 27.385 -6.3075 27.385 -6.8125 26.375 C-13.63564339 24.98724202 -19.5538137 25.73320677 -26.3828125 26.90234375 C-29.90314792 27.38749248 -33.26361971 27.45175695 -36.8125 27.375 C-35.29910052 23.13748146 -32.62258791 21.57312764 -28.8125 19.375 C-20.04662952 15.76552392 -7.87979706 15.75434031 1 19.0625 C4.83035172 20.90821352 7.47501157 23.12001388 10.1875 26.375 C6.5575 26.045 2.9275 25.715 -0.8125 25.375 C-0.1525 26.695 0.5075 28.015 1.1875 29.375 C1.93870542 33.50662982 1.17188034 35.87418163 -1.125 39.25 C-10.53165278 50.66456938 -23.48873128 55.48505829 -37.8125 57.375 C-42.64545641 57.61447081 -46.68564416 56.99522593 -50.8125 54.375 C-55.51216388 49.96833262 -57.0186759 46.35089814 -57.25 40 C-57.13474648 28.72820581 -51.93531036 20.62270732 -44.30078125 12.62890625 C-34.20113285 3.48055912 -13.76600255 -8.11150761 0 0 Z " fill="#1E2B56" transform="translate(56.8125,47.625)"/>
<path d="M0 0 C5.22303255 5.4659643 6.94318361 9.94954622 7.3125 17.5625 C7.03025458 27.30519369 2.62674847 36.0346294 -4.3125 42.8125 C-10.74374407 47.7614499 -16.77971341 51.37018579 -25.16015625 51.12890625 C-30.59265401 50.3302995 -35.04433515 48.14407309 -38.8125 44.1875 C-42.14066981 38.91789781 -41.86335803 33.94276296 -41.3125 27.8125 C-39.59453424 22.15149234 -35.06507172 18.09850086 -30.3125 14.8125 C-27.40163331 13.8422111 -25.41026315 13.64782153 -22.375 13.625 C-21.52035156 13.61082031 -20.66570312 13.59664062 -19.78515625 13.58203125 C-17.13962698 13.82861297 -15.55877335 14.42100323 -13.3125 15.8125 C-11.2649068 18.44511982 -11.31464344 19.87144468 -11.4375 23.25 C-12.3953126 27.14966558 -13.44781446 29.02966261 -16.3125 31.8125 C-18.44921875 32.4453125 -18.44921875 32.4453125 -20.3125 32.8125 C-19.93996094 32.29300781 -19.56742187 31.77351563 -19.18359375 31.23828125 C-16.11471015 26.9404487 -16.11471015 26.9404487 -15.4375 21.875 C-16.14051615 19.85955412 -16.14051615 19.85955412 -17.3125 18.8125 C-22.33158607 18.42641646 -25.32842187 18.66717516 -29.3125 21.8125 C-33.47650084 25.97650084 -35.20651678 28.87743979 -35.3125 34.8125 C-34.92907799 38.13200927 -34.92907799 38.13200927 -33.3125 40.8125 C-28.92033402 43.11315837 -24.18211048 43.4383134 -19.3125 42.8125 C-9.0683728 38.91973166 -4.27976483 31.26307572 0.125 21.6875 C1.1633779 16.38023517 0.48814956 12.35449174 -2 7.5625 C-5.23222277 3.71877563 -8.55233907 1.39922031 -13.3125 -0.1875 C-21.36165175 -0.51564288 -29.33182573 -0.30759464 -37.3125 0.8125 C-28.05350992 -8.44649008 -10.00046289 -6.60407927 0 0 Z " fill="#1E2B56" transform="translate(335.3125,54.1875)"/>
<path d="M0 0 C4.12841088 2.78218994 8.07327454 6.26977027 9.54296875 11.16015625 C9.65253906 11.74667969 9.76210937 12.33320312 9.875 12.9375 C9.215 13.2675 8.555 13.5975 7.875 13.9375 C7.33875 13.03 6.8025 12.1225 6.25 11.1875 C3.94003497 7.77909006 1.60638828 5.80319414 -2.125 3.9375 C-7.92953751 3.09490585 -11.56064024 3.94307182 -16.359375 7.34375 C-20.34009698 10.93696807 -21.82006424 14.56789501 -22.5 19.8515625 C-23.39573476 42.86074902 -9.34043111 63.12137723 4.875 79.9375 C3.885 80.9275 2.895 81.9175 1.875 82.9375 C-12.45892562 77.15071796 -23.31684748 55.29493532 -29.78515625 42.12109375 C-33.54297854 33.1921574 -34.96964558 22.76767418 -32.40234375 13.26171875 C-28.74764602 5.40485844 -22.04303354 2.73455741 -14.3515625 -0.078125 C-9.04291778 -1.69771153 -5.34255554 -1.81646888 0 0 Z " fill="#273252" transform="translate(171.125,24.0625)"/>
<path d="M0 0 C1.02802734 -0.00386719 2.05605469 -0.00773437 3.11523438 -0.01171875 C4.10974609 -0.01042969 5.10425781 -0.00914063 6.12890625 -0.0078125 C7.47770874 -0.00612061 7.47770874 -0.00612061 8.85375977 -0.00439453 C11.47081752 0.12666855 13.88522724 0.54620512 16.4375 1.125 C16.4375 1.455 16.4375 1.785 16.4375 2.125 C15.789021 2.19493164 15.14054199 2.26486328 14.47241211 2.33691406 C-18.70117737 5.99056128 -46.82500649 15.12165039 -68.44287109 41.91845703 C-76.53929995 52.32396689 -83.09504916 63.66019165 -89.5625 75.125 C-91.2125 74.795 -92.8625 74.465 -94.5625 74.125 C-94.5625 67.855 -94.5625 61.585 -94.5625 55.125 C-94.2325 55.125 -93.9025 55.125 -93.5625 55.125 C-92.5725 60.57 -92.5725 60.57 -91.5625 66.125 C-89.53055369 63.41573825 -88.06545916 61.3662783 -86.6171875 58.4375 C-81.9840984 49.26519974 -77.15360167 41.06122446 -70.5625 33.125 C-69.80453125 32.19171875 -69.0465625 31.2584375 -68.265625 30.296875 C-55.0391931 14.82281415 -37.32303354 5.37900375 -17.5625 1.125 C-16.66660156 0.9290625 -15.77070313 0.733125 -14.84765625 0.53125 C-9.90009529 -0.0805768 -4.98000779 -0.01880431 0 0 Z " fill="#1F2C57" transform="translate(316.5625,26.875)"/>
<path d="M0 0 C3.53836745 5.30755117 2.16596271 11.62021664 1 17.5 C0.67433375 19.00168326 0.34372369 20.50234679 0 22 C-0.66 21.67 -1.32 21.34 -2 21 C-2.37890625 18.6015625 -2.37890625 18.6015625 -2.5625 15.625 C-2.76686657 12.46357425 -2.99377883 10.01866352 -4 7 C-11.46579625 15.07477079 -11.46579625 15.07477079 -18.75 23.3125 C-32.93442473 39.54727996 -32.93442473 39.54727996 -42.0625 40.875 C-43.5165625 40.936875 -43.5165625 40.936875 -45 41 C-44.34 40.34 -43.68 39.68 -43 39 C-42.54109375 38.53851563 -42.0821875 38.07703125 -41.609375 37.6015625 C-40.4841759 36.48182553 -39.34776812 35.37329023 -38.203125 34.2734375 C-32.65285465 28.87857472 -27.8512767 23.02119874 -23 17 C-21.11826238 14.67557925 -19.22034681 12.36552272 -17.3125 10.0625 C-16.87317139 9.51891846 -16.43384277 8.97533691 -15.98120117 8.4152832 C-11.42017349 2.93812616 -7.35521079 -0.70049627 0 0 Z " fill="#1F2B56" transform="translate(289,82)"/>
<path d="M0 0 C-0.9075 0.639375 -1.815 1.27875 -2.75 1.9375 C-7.85968917 6.32069308 -9.66503057 11.04788627 -10.41796875 17.68359375 C-11.53631492 38.85985307 1.75067663 56.46886597 15.296875 71.55859375 C16.49998864 72.86998762 17.71616399 74.16970174 18.953125 75.44921875 C19.29859375 75.96097656 19.6440625 76.47273438 20 77 C19.505 78.485 19.505 78.485 19 80 C4.66607438 74.21321796 -6.19184748 52.35743532 -12.66015625 39.18359375 C-16.41797854 30.2546574 -17.84464558 19.83017418 -15.27734375 10.32421875 C-12.62663664 4.62573505 -6.6714107 -2.22380357 0 0 Z " fill="#F8D620" transform="translate(154,27)"/>
<path d="M0 0 C-1.54058233 5.01508715 -3.02931839 9.6147081 -6 14 C-3.69 14.33 -1.38 14.66 1 15 C1 15.99 1 16.98 1 18 C-1 19.33333333 -3 20.66666667 -5 22 C-5 22.99 -5 23.98 -5 25 C-2.69 25.66 -0.38 26.32 2 27 C2 27.66 2 28.32 2 29 C-0.32686453 30.16343227 -1.84721413 30.19895988 -4.4375 30.25 C-5.21996094 30.27578125 -6.00242188 30.3015625 -6.80859375 30.328125 C-9.53677498 29.91962728 -10.3441611 29.16727539 -12 27 C-12.33 26.01 -12.66 25.02 -13 24 C-13.54269531 24.69867188 -14.08539063 25.39734375 -14.64453125 26.1171875 C-15.35996094 27.02726562 -16.07539063 27.93734375 -16.8125 28.875 C-17.87404297 30.23238281 -17.87404297 30.23238281 -18.95703125 31.6171875 C-21 34 -21 34 -24 36 C-23.20182781 21.63290056 -13.61740987 11.41856243 -3.91796875 1.65234375 C-2 0 -2 0 0 0 Z " fill="#202C57" transform="translate(262,69)"/>
<path d="M0 0 C-1.04479346 2.66080577 -2.12857468 5.28948783 -3.2890625 7.90234375 C-3.72992188 8.90394531 -4.17078125 9.90554687 -4.625 10.9375 C-5.07101563 11.93652344 -5.51703125 12.93554688 -5.9765625 13.96484375 C-7.05643605 17.1673695 -7.18997847 19.64538021 -7 23 C-6.46890625 22.73445313 -5.9378125 22.46890625 -5.390625 22.1953125 C-0.1953125 19.59765625 -0.1953125 19.59765625 5 17 C3.87535265 20.93626573 2.10617235 23.51373039 -1.1484375 26.046875 C-4.66299333 27.85605564 -8.18712169 27.78346815 -12 27 C-14.125 25.5 -14.125 25.5 -15 23 C-15.1459672 14.38793499 -10.52936343 8.47246181 -4.75 2.4375 C-2 0 -2 0 0 0 Z " fill="#222F59" transform="translate(70,75)"/>
<path d="M0 0 C0.66 0 1.32 0 2 0 C3.62109375 1.828125 3.62109375 1.828125 5.4375 4.25 C6.33275391 5.43335937 6.33275391 5.43335937 7.24609375 6.640625 C7.82488281 7.41921875 8.40367187 8.1978125 9 9 C9.56847656 9.75796875 10.13695312 10.5159375 10.72265625 11.296875 C11.14417969 11.85890625 11.56570312 12.4209375 12 13 C9 13 9 13 6.73828125 10.91796875 C5.93777344 10.01691406 5.13726562 9.11585937 4.3125 8.1875 C3.50425781 7.29417969 2.69601563 6.40085937 1.86328125 5.48046875 C0 3 0 3 0 0 Z " fill="#3D424C" transform="translate(164,91)"/>
<path d="M0 0 C0 3 0 3 -2.125 5.6875 C-5 8 -5 8 -8.3125 8.3125 C-9.6428125 8.1578125 -9.6428125 8.1578125 -11 8 C-10.34 7.67 -9.68 7.34 -9 7 C-9 6.34 -9 5.68 -9 5 C-8.071875 4.731875 -7.14375 4.46375 -6.1875 4.1875 C-3.23759634 3.08851629 -1.94384814 2.37581439 0 0 Z " fill="#585746" transform="translate(206,47)"/>
<path d="M0 0 C0.66 0.33 1.32 0.66 2 1 C-1.44615385 5.8 -1.44615385 5.8 -4.25 6.8125 C-5.11625 6.9053125 -5.11625 6.9053125 -6 7 C-2.25 1.125 -2.25 1.125 0 0 Z " fill="#2B3961" transform="translate(321,80)"/>
</svg>
